# xmcd CD database file
#
# Track frame offsets:
#	150
#	8245
#	23565
#	47918
#	63638
#	93713
#	129958
#	130753
#	150735
#	166085
#	193955
#	214120
#	234823
#	257453
#	267243
#	285713
#
# Disc length: 4096 seconds
#
# Revision: 0
# Processed by: cddbd v1.5PL3 Copyright (c) Steve Scherf et al.
# Submitted via: CDex 1.40Release
#
DISCID=d90ffe10
DTITLE=ハイスピードジェシー - original sound track
DYEAR=1900
DGENRE=Anime
TTITLE0=Please Please Me/オープニング (ビデオサイズ)
TTITLE1=ビスマーク家の脅威
TTITLE2=魔空
TTITLE3=WEAPONS 〜パオロンとローエンドルフ〜
TTITLE4=ティアナ
TTITLE5=捕らわれのティアナ
TTITLE6=アイキャッチ
TTITLE7=忌まわしい記憶
TTITLE8=フォーク&ジェシー
TTITLE9=クロス&ジェシー
TTITLE10=疾走！
TTITLE11=ジェシー・ムーア (テーマヴァリエーション)
TTITLE12=闘いの終焉…そして
TTITLE13=心から君だけを愛していたよ/エンディング (ビデオサイズ)
TTITLE14=Please Please Me
TTITLE15=心から君だけを愛していたよ
EXTD=
EXTT0=
EXTT1=
EXTT2=
EXTT3=
EXTT4=
EXTT5=
EXTT6=
EXTT7=
EXTT8=
EXTT9=
EXTT10=
EXTT11=
EXTT12=
EXTT13=
EXTT14=
EXTT15=
PLAYORDER=
